# Blender 4.1.1
# www.blender.org
mtllib alader.mtl
o WİNG.001
v -0.159151 0.151475 -0.257409
v -0.159151 0.151475 0.258387
v -0.048655 0.151475 -0.257409
v -0.048655 0.151475 0.258387
v -0.148286 0.482265 -0.288068
v -0.148286 0.482265 0.126296
v -0.059520 0.482265 -0.288068
v -0.059520 0.482265 0.126296
v -0.159151 0.151475 0.000489
v -0.048655 0.151475 0.000489
v -0.059520 0.482265 -0.080886
v -0.148286 0.482265 -0.080886
v -0.084942 0.305874 -0.293848
v -0.084942 0.305874 0.206853
v -0.192204 0.305874 -0.293848
v -0.192205 0.305874 0.206853
v -0.192204 0.305874 -0.043498
v -0.084942 0.305874 -0.043498
v -0.092059 0.052506 -0.185763
v -0.092059 0.052506 0.186741
v -0.012260 0.052506 -0.185763
v -0.012260 0.052506 0.186741
v -0.092059 0.052506 0.000489
v -0.012260 0.052506 0.000489
v -0.030882 -0.000278 -0.097365
v -0.030882 -0.000278 0.098343
v 0.011043 -0.000278 -0.097365
v 0.011043 -0.000278 0.098343
v -0.030882 -0.000278 0.000489
v 0.011043 -0.000278 0.000489
v -0.112708 0.598830 -0.237064
v -0.112708 0.598830 0.114880
v -0.037314 0.598830 -0.237064
v -0.037314 0.598830 0.114880
v -0.037314 0.598830 -0.061092
v -0.112708 0.598830 -0.061092
v -0.031883 0.721992 -0.076523
v -0.031883 0.721992 0.117088
v 0.009594 0.721992 -0.076523
v 0.009594 0.721992 0.117088
v 0.009594 0.721992 0.020283
v -0.031883 0.721992 0.020283
v 0.022309 0.801168 0.081864
v 0.022309 0.801168 0.081864
v 0.022309 0.801168 0.081864
v 0.022309 0.801168 0.081864
v 0.022309 0.801168 0.081864
v 0.022309 0.801168 0.081864
v 0.022309 0.801168 0.081864
v 0.022309 0.801168 0.081864
v 0.022309 0.801168 0.081864
v 0.022309 0.801168 0.081864
v 0.022309 0.801168 0.081864
v 0.022309 0.801168 0.081864
vn 0.9385 0.3451 -0.0000
vn 0.9898 -0.1426 -0.0000
vn -0.0000 0.4009 -0.9161
vn -0.9778 -0.2093 -0.0000
vn -0.0000 0.0328 -0.9995
vn -0.0000 0.3166 0.9486
vn -0.9564 0.2919 -0.0000
vn -0.0000 -0.5864 -0.8100
vn 0.9735 0.2288 -0.0000
vn -0.9704 0.2416 -0.0000
vn -0.0000 0.4154 0.9096
vn -0.0000 -0.2297 -0.9733
vn -0.6533 -0.7571 -0.0000
vn -0.8277 -0.5611 -0.0000
vn -0.0000 -0.5864 0.8100
vn -0.0000 -1.0000 -0.0000
vn -0.0000 -0.8586 0.5127
vn -0.0000 -0.8586 -0.5127
vn 0.9148 0.4039 -0.0000
vn -0.0000 -0.0179 0.9998
vn 0.9345 -0.3559 -0.0000
vn 0.9823 -0.1871 -0.0000
vn -0.0000 0.0975 0.9952
vn -0.8252 0.5648 -0.0000
vn -0.8360 0.5487 -0.0000
vn -0.0000 0.7934 -0.6087
vn -0.0000 -0.0000 1.0000
vn -0.0000 0.8945 -0.4471
vn 0.9873 -0.1586 -0.0000
vn -0.0000 0.4065 0.9137
vt 0.500000 0.250000
vt 0.375000 0.250000
vt 0.500000 0.375000
vt 0.625000 0.375000
vt 0.625000 0.500000
vt 0.500000 0.500000
vt 0.375000 0.750000
vt 0.375000 0.500000
vt 0.500000 0.875000
vt 0.625000 0.875000
vt 0.625000 1.000000
vt 0.500000 1.000000
vt 0.250000 0.500000
vt 0.250000 0.750000
vt 0.750000 0.500000
vt 0.875000 0.500000
vt 0.875000 0.750000
vt 0.750000 0.750000
vt 0.375000 0.875000
vt 0.375000 1.000000
vt 0.500000 0.750000
vt 0.375000 0.375000
vt 0.125000 0.500000
vt 0.125000 0.750000
vt 0.625000 0.750000
vt 0.625000 0.250000
vt 0.500000 0.000000
vt 0.625000 0.000000
vt 0.375000 0.000000
s 0
usemtl Material.005
f 10/1/1 24/1/1 21/2/1 3/2/1
f 18/3/2 11/6/2 8/5/2 14/4/2
f 5/7/3 31/7/3 33/8/3 7/8/3
f 17/9/4 9/12/4 2/11/4 16/10/4
f 13/13/5 15/14/5 5/7/5 7/8/5
f 14/15/6 16/18/6 2/17/6 4/16/6
f 15/19/4 1/20/4 9/12/4 17/9/4
f 12/21/7 36/21/7 31/7/7 5/7/7
f 13/22/2 7/8/2 11/6/2 18/3/2
f 3/23/8 21/23/8 19/24/8 1/24/8
f 3/2/9 13/22/9 18/3/9 10/1/9
f 5/7/10 15/19/10 17/9/10 12/21/10
f 8/5/11 6/25/11 16/18/11 14/15/11
f 3/23/12 1/24/12 15/14/12 13/13/12
f 12/21/10 17/9/10 16/10/10 6/25/10
f 10/1/9 18/3/9 14/4/9 4/26/9
f 19/20/13 25/20/13 29/12/13 23/12/13
f 23/12/13 29/12/13 26/11/13 20/11/13
f 1/20/14 19/20/14 23/12/14 9/12/14
f 9/12/14 23/12/14 20/11/14 2/11/14
f 4/26/1 22/26/1 24/1/1 10/1/1
f 2/17/15 20/17/15 22/16/15 4/16/15
f 29/27/16 30/1/16 28/26/16 26/28/16
f 25/29/16 27/2/16 30/1/16 29/27/16
f 20/17/17 26/17/17 28/16/17 22/16/17
f 21/23/18 27/23/18 25/24/18 19/24/18
f 22/26/19 28/26/19 30/1/19 24/1/19
f 24/1/19 30/1/19 27/2/19 21/2/19
f 34/5/20 40/5/20 38/25/20 32/25/20
f 35/6/21 41/6/21 40/5/21 34/5/21
f 11/6/22 35/6/22 34/5/22 8/5/22
f 8/5/23 34/5/23 32/25/23 6/25/23
f 7/8/22 33/8/22 35/6/22 11/6/22
f 6/25/7 32/25/7 36/21/7 12/21/7
f 42/21/24 48/21/24 43/7/24 37/7/24
f 38/25/24 44/25/24 48/21/24 42/21/24
f 33/8/21 39/8/21 41/6/21 35/6/21
f 32/25/25 38/25/25 42/21/25 36/21/25
f 36/21/25 42/21/25 37/7/25 31/7/25
f 31/7/26 37/7/26 39/8/26 33/8/26
f 51/8/27 49/7/27 54/21/27 53/6/27
f 53/6/27 54/21/27 50/25/27 52/5/27
f 37/7/28 43/7/28 45/8/28 39/8/28
f 41/6/29 47/6/29 46/5/29 40/5/29
f 40/5/30 46/5/30 44/25/30 38/25/30
f 39/8/29 45/8/29 47/6/29 41/6/29
