# Blender 4.1.1
# www.blender.org
mtllib patader.mtl
o CHİCKEN
v 0.137485 0.350763 -0.043094
v 0.139691 0.087705 -0.125182
v -0.055387 0.087705 -0.125182
v -0.055387 0.350763 -0.043094
v -0.064368 0.351171 -0.111537
v -0.046085 0.078053 -0.144859
v 0.148670 0.087350 -0.146203
v 0.128185 0.360363 -0.112865
v -0.046983 0.282919 -0.229107
v -0.038306 0.152342 -0.229586
v 0.054121 0.156649 -0.230737
v 0.044399 0.287177 -0.230245
v -0.046605 0.031565 -0.561082
v -0.046760 -0.079075 -0.561488
v 0.031556 -0.075426 -0.562463
v 0.033058 0.035173 -0.562046
v -0.045960 0.031815 -0.656214
v -0.035883 -0.078369 -0.648020
v 0.021870 -0.075678 -0.648134
v 0.031478 0.035423 -0.656366
v 0.032539 0.035255 -0.593037
v -0.046393 0.031647 -0.592340
v -0.036201 -0.078491 -0.601461
v 0.021547 -0.075800 -0.601981
v -0.045960 0.031815 -0.656214
v -0.046109 -0.078826 -0.656622
v 0.032215 -0.075176 -0.656775
v 0.031478 0.035423 -0.656366
v 0.032539 0.035255 -0.593037
v -0.046393 0.031647 -0.592340
v -0.046546 -0.078993 -0.592746
v 0.031772 -0.075344 -0.593452
v -0.059711 0.032512 -0.644232
v -0.092709 -0.078780 -0.656844
v 0.078816 -0.075180 -0.656935
v 0.045349 0.034703 -0.644287
v 0.046002 0.034600 -0.605296
v -0.059977 0.032408 -0.604905
v -0.093146 -0.078948 -0.592968
v 0.078373 -0.075347 -0.593611
v 0.004298 0.124875 -0.656375
v -0.030378 0.123260 -0.656307
v 0.004773 0.124800 -0.628017
v -0.030572 0.123185 -0.627704
v -0.046109 -0.078826 -0.656622
v 0.032215 -0.075176 -0.656775
v -0.046546 -0.078993 -0.592746
v 0.031772 -0.075344 -0.593452
v -0.057464 -0.183409 -0.657260
v -0.057659 -0.183484 -0.628814
v 0.045774 -0.184940 -0.658178
v 0.045559 -0.185021 -0.627422
v -0.078217 -0.183389 -0.657359
v -0.078412 -0.183464 -0.628913
v 0.068408 -0.184942 -0.658255
v 0.068193 -0.185023 -0.627499
v -0.022097 -0.184963 -0.657219
v 0.011328 -0.183405 -0.657284
v -0.022281 -0.185033 -0.630272
v 0.011141 -0.183476 -0.630573
vn 0.9991 0.0421 0.0008
vn 0.0301 -0.7546 -0.6555
vn -0.9994 -0.0341 -0.0001
vn 0.0239 -0.9682 0.2488
vn 0.9965 0.0343 -0.0759
vn 0.7438 0.1109 -0.6591
vn -0.0235 0.9969 0.0753
vn -0.9906 -0.0557 -0.1249
vn 0.9567 0.2907 -0.0153
vn -0.0452 0.8615 -0.5058
vn -0.9987 -0.0354 0.0379
vn -0.0440 0.7964 -0.6032
vn 0.0453 -0.8200 0.5706
vn -0.0000 1.0000 -0.0000
vn -0.0021 0.0037 -1.0000
vn 0.9999 -0.0102 -0.0049
vn -0.0059 0.0852 -0.9963
vn -1.0000 0.0014 -0.0068
vn 0.0465 -0.9989 -0.0023
vn 0.0532 0.9986 0.0030
vn -0.0454 0.9990 0.0029
vn -0.9585 0.2849 -0.0058
vn 0.9580 0.2869 -0.0012
vn 0.1937 0.0879 -0.9771
vn 0.2027 0.0789 0.9761
vn -0.9924 -0.1225 -0.0073
vn 0.0503 0.9987 0.0018
vn -0.1895 0.0857 -0.9781
vn -0.2061 0.0816 0.9751
vn 0.0207 -0.2585 0.9658
vn -0.0461 0.9989 0.0029
vn -0.0083 0.3616 0.9323
vn -0.9858 0.1680 -0.0062
vn -0.0019 -0.0007 -1.0000
vn -0.0001 -1.0000 -0.0026
vn -0.0010 -1.0000 -0.0026
vn -0.0048 -0.3258 0.9454
vn -0.9905 -0.1372 -0.0071
vn -0.9918 -0.1277 -0.0071
vn -0.0034 0.0124 -0.9999
vn 0.0048 0.0056 -1.0000
vn 0.9955 -0.0945 0.0067
vn 0.9941 -0.1080 0.0065
vn 0.9952 -0.0980 0.0067
vn 0.0032 -0.2955 0.9553
vt 0.350080 0.716918
vt 0.274920 0.721631
vt 0.274920 0.653051
vt 0.350080 0.657737
vt 0.274920 0.662057
vt 0.274920 0.712625
vt 0.274920 0.712625
vt 0.274920 0.662057
s 0
usemtl Material.002
f 1/1/1 2/2/1 7/2/1 8/1/1
f 7/2/2 6/3/2 10/3/2 11/2/2
f 3/3/3 4/4/3 5/4/3 6/3/3
f 2/2/4 3/3/4 6/3/4 7/2/4
f 8/1/6 7/2/6 11/2/6 12/1/6
f 4/4/7 1/1/7 8/1/7 5/4/7
f 6/3/8 5/4/8 9/4/8 10/3/8
f 5/4/10 8/1/10 12/1/10 9/4/10
usemtl orange
f 12/1/5 11/2/5 15/2/5 16/1/5
f 21/1/9 20/1/9 41/1/9 43/1/9
f 10/3/11 9/4/11 13/4/11 14/3/11
f 9/4/12 12/1/12 16/1/12 13/4/12
f 11/2/13 10/3/13 14/3/13 15/2/13
f 20/1/14 21/1/14 29/1/14 28/1/14
f 45/3/15 17/4/15 20/1/15 46/2/15
f 45/3/14 47/3/14 31/3/14 26/3/14
f 16/1/16 15/2/16 48/2/16 21/1/16
f 18/5/17 19/6/17 58/6/17 57/5/17
f 14/3/18 13/4/18 22/4/18 47/3/18
f 15/2/19 14/3/19 47/3/19 48/2/19
f 30/4/20 25/4/20 33/4/20 38/4/20
f 13/4/21 16/1/21 21/1/21 22/4/21
f 48/2/14 46/2/14 27/2/14 32/2/14
f 17/4/14 45/3/14 26/3/14 25/4/14
f 22/4/14 17/4/14 25/4/14 30/4/14
f 47/3/14 22/4/14 30/4/14 31/3/14
f 21/1/14 48/2/14 32/2/14 29/1/14
f 46/2/14 20/1/14 28/1/14 27/2/14
f 39/3/22 38/4/22 33/4/22 34/3/22
f 37/1/23 40/2/23 35/2/23 36/1/23
f 27/2/24 28/1/24 36/1/24 35/2/24
f 29/1/25 32/2/25 40/2/25 37/1/25
f 32/2/26 27/2/26 51/2/26 52/2/26
f 28/1/27 29/1/27 37/1/27 36/1/27
f 25/4/28 26/3/28 34/3/28 33/4/28
f 31/3/29 30/4/29 38/4/29 39/3/29
f 24/7/30 23/8/30 59/8/30 60/7/30
f 44/4/31 43/1/31 41/1/31 42/4/31
f 22/4/32 21/1/32 43/1/32 44/4/32
f 17/4/33 22/4/33 44/4/33 42/4/33
f 20/1/34 17/4/34 42/4/34 41/1/34
f 18/5/19 23/8/19 47/3/19 45/3/19
f 24/7/19 19/6/19 46/2/19 48/2/19
f 19/6/19 18/5/19 45/3/19 46/2/19
f 23/8/19 24/7/19 48/2/19 47/3/19
f 52/2/35 51/2/35 55/2/35 56/2/35
f 49/3/36 50/3/36 54/3/36 53/3/36
f 31/3/37 39/3/37 54/3/37 50/3/37
f 39/3/38 34/3/38 53/3/38 54/3/38
f 23/8/39 18/5/39 57/5/39 59/8/39
f 27/2/40 35/2/40 55/2/40 51/2/40
f 34/3/41 26/3/41 49/3/41 53/3/41
f 35/2/42 40/2/42 56/2/42 55/2/42
f 26/3/43 31/3/43 50/3/43 49/3/43
f 19/6/44 24/7/44 60/7/44 58/6/44
f 40/2/45 32/2/45 52/2/45 56/2/45
f 60/7/19 59/8/19 57/5/19 58/6/19
